<?xml version="1.0" encoding="UTF-8"?>
<svg height="32" viewBox="0 0 338 133" xmlns="http://www.w3.org/2000/svg"><defs><clipPath id="rdnClip1"><path d="M0.06 0.19 L337.02 0.19 L337.02 132.94 L0.06 132.94 Z"/></clipPath></defs><g clip-path="url(#rdnClip1)"><path fill-rule="evenodd" fill="#519FDF" d="M 0 72.5625 C 0 70.511719 0 68.464844 0 66.414062 C 1.328125 59.996094 4.539062 54.464844 8.195312 50.367188 C 22.570312 34.257812 48.410156 25.179688 73.070312 18.269531 C 145.085938 -1.914062 258.339844 -5.84375 337.019531 9.734375 C 257.625 1.175781 159.765625 5.835938 95.269531 27.488281 C 73.777344 34.703125 49.261719 44.765625 38.925781 60.953125 C 33.203125 69.910156 34.15625 81.308594 39.269531 88.949219 C 48.425781 102.648438 64.859375 110.421875 82.292969 117.292969 C 99.523438 124.085938 118.675781 129.664062 137.949219 133 C 100.296875 128.75 57.347656 119.394531 28 103.292969 C 15.710938 96.550781 3.328125 86.769531 0 72.5625"/></g><path fill-rule="evenodd" fill="#1E3259" d="M 109.265625 70.855469 C 124.457031 73.546875 109.96875 92.382812 107.5625 100.21875 C 100.84375 100.21875 94.128906 100.21875 87.414062 100.21875 C 88.667969 97.292969 90.335938 94.367188 91.851562 91 C 94.105469 86.007812 97.894531 78.855469 90.144531 77.683594 C 84.707031 76.859375 68.847656 77.300781 68.847656 77.300781 C 68.847656 77.300781 72.882812 68.046875 75.121094 63.34375 C 84.027344 62.363281 98.921875 65.050781 105.171875 62.316406 C 106.894531 61.566406 109.863281 58.867188 109.265625 56.511719 C 108.402344 53.109375 99.550781 54.464844 95.269531 54.464844 C 89.144531 54.464844 84.402344 54.464844 79.21875 54.464844 C 81.367188 49.441406 85.753906 40.363281 85.753906 40.363281 C 85.753906 40.363281 105.714844 39.257812 115.507812 39.796875 C 124.40625 40.289062 131.539062 42.339844 132.144531 49 C 133.21875 60.800781 120.667969 69.457031 109.265625 70.855469"/><path fill-rule="evenodd" fill="#1E3259" d="M 144.78125 39.78125 C 168.792969 40 198.691406 36.039062 196 62.316406 C 195.875 63.519531 195.6875 64.773438 195.316406 66.074219 C 190.425781 83.175781 170.164062 98.769531 146.828125 100.21875 C 137.402344 100.804688 117.464844 100.21875 117.464844 100.21875 C 117.464844 100.21875 128.476562 75.722656 133.851562 63.34375 C 140.566406 63.34375 147.28125 63.34375 154 63.34375 C 150.554688 70.9375 147.03125 78.453125 143.753906 86.21875 C 156.253906 86.070312 166.222656 80.859375 171.414062 73.246094 C 173.246094 70.558594 174.664062 66.25 174.144531 62.660156 C 173.394531 57.453125 169.34375 55.390625 163.886719 54.660156 C 156.382812 53.652344 138.289062 54.464844 138.289062 54.464844 C 138.289062 54.464844 142.335938 44.394531 144.78125 39.78125"/><path fill-rule="evenodd" fill="#1E3259" d="M 214.78125 39.78125 C 214.78125 39.78125 236.253906 39.078125 251.664062 39.945312 C 259.230469 40.371094 264.957031 43.710938 265.65625 48.316406 C 266.382812 53.097656 263.542969 58.257812 261.558594 62.660156 C 255.976562 75.03125 250.21875 88.902344 244.828125 100.21875 C 238.226562 100.21875 231.625 100.21875 225.023438 100.21875 C 229.03125 90.75 234.933594 79 239.929688 67.746094 C 241.121094 65.0625 244.824219 59.15625 243.460938 56.171875 C 241.949219 52.859375 228.097656 54.464844 228.097656 54.464844 C 228.097656 54.464844 214.285156 85.042969 207.265625 100.21875 C 200.664062 100.21875 194.0625 100.21875 187.460938 100.21875 C 196.316406 79.824219 214.78125 39.78125 214.78125 39.78125"/></svg>